<svg xmlns="http://www.w3.org/2000/svg" width="175.38" height="104.41" viewBox="0 0 175.38 104.41"><path d="M214.678,86.846a62.684,62.684,0,1,0-122.45,0Z" transform="translate(-65.793 -10.44)" fill="#1e2b59"/><path d="M218.667,93.741a59.848,59.848,0,1,0-116.639,0Z" transform="translate(-72.69 -17.335)" fill="#fff"/><path d="M223.043,101.322a56.73,56.73,0,1,0-110.228,0Z" transform="translate(-80.275 -24.916)" fill="#cb2026"/><path d="M240.867,132.355a43.966,43.966,0,1,0-83.722,0Z" transform="translate(-111.351 -55.949)" fill="#fff"/><path d="M242.849,135.81a42.545,42.545,0,1,0-80.729,0Z" transform="translate(-114.824 -59.403)" fill="#1e2b59"/><path d="M258.781,142.573H197.859l.029-3.427h3.686v-1.7h53.6v1.7h3.686m-7.086-3.655c.279.245.565.733.85.973h-7.657c.285-.24.568-.73.85-.973Zm-13.617,0c.285.245.571.733.853.973h-7.657c.279-.24.568-.73.85-.973Zm-13.611,0c.285.245.571.733.85.973h-7.657c.285-.24.571-.73.853-.973Zm-13.614,0c.28.245.565.733.85.973h-7.657c.285-.24.571-.73.85-.973Zm40.271-.73h-4.821V107.7a31.378,31.378,0,0,0,4.821,0Zm-13.611,0h-4.818V107.947a31.522,31.522,0,0,1,4.818,0Zm-13.617,0h-4.821V107.7a15.85,15.85,0,0,0,4.821,0Zm-13.611,0h-4.818V107.7a31.34,31.34,0,0,0,4.818,0ZM252.623,106c-.285.245-.571.733-.85.979h-5.96c-.28-.245-.565-.733-.85-.979Zm-13.611,0c-.285.245-.571.733-.853.979h-5.954c-.285-.245-.571-.733-.85-.979ZM225.4,106c0,.245-.565.733-.85.979h-5.954c-.285-.245-.853-.733-.853-.979Zm-13.614,0c-.285.245-.571.733-.85.979h-5.96c-.28-.245-.565-.733-.85-.979Zm44.525-2.682v1.951H200.438l.285-1.951ZM244.684,99.9h-32.9l16.45-7.07Zm15.6,2.682H196.47L228.234,88.69Z" transform="translate(-140.719 -65.831)" fill="#fff" fill-rule="evenodd"/><g transform="translate(0 80.85)"><g><path d="M12.7,295.794H8.41l-.635,1.332a1.11,1.11,0,0,0-.131.438c0,.2.154.345.463.424v.222H4.98v-.222a.826.826,0,0,0,.422-.2,1.874,1.874,0,0,0,.332-.54l3.476-7.286a1.393,1.393,0,0,0,.166-.555c0-.213-.134-.365-.4-.459v-.222h3.351v.222c-.274.079-.408.216-.408.409a1.035,1.035,0,0,0,.131.459l3.6,7.306a2.374,2.374,0,0,0,.4.634.891.891,0,0,0,.463.228v.222H13.033v-.222c.306-.053.46-.2.46-.432a1.108,1.108,0,0,0-.14-.429Zm-.594-1.3-1.534-3.377-1.558,3.377Z" transform="translate(-4.98 -288.283)" fill="#f7f7f7"/><path d="M53.167,298.21l-3.485-6.55v5.819a.487.487,0,0,0,.1.327.7.7,0,0,0,.346.181v.222H47.35v-.222a.71.71,0,0,0,.346-.181.482.482,0,0,0,.1-.327v-8.028a.472.472,0,0,0-.1-.318.72.72,0,0,0-.346-.181v-.222h3.642v.222a.376.376,0,0,0-.326.383.69.69,0,0,0,.1.318l2.577,4.9,2.612-4.817a1.161,1.161,0,0,0,.175-.464c0-.19-.116-.3-.346-.318v-.222h3.572v.222a.719.719,0,0,0-.346.181.477.477,0,0,0-.1.318v8.028a.487.487,0,0,0,.1.327.7.7,0,0,0,.346.181v.222H56.4v-.222a.665.665,0,0,0,.344-.178.486.486,0,0,0,.1-.33v-5.819Z" transform="translate(-35.014 -288.283)" fill="#f7f7f7"/><path d="M96.907,292.967v2.6h6.079a.464.464,0,0,0,.317-.1.725.725,0,0,0,.18-.348h.221v2.451h-.221a.739.739,0,0,0-.18-.348.47.47,0,0,0-.317-.1H94.4V296.9a.7.7,0,0,0,.346-.181.482.482,0,0,0,.1-.327v-8.022a.492.492,0,0,0-.1-.327.719.719,0,0,0-.346-.181v-.222h8.417a.45.45,0,0,0,.317-.1.741.741,0,0,0,.181-.345h.221v2.451h-.221a.726.726,0,0,0-.181-.345.455.455,0,0,0-.317-.1h-5.91v2.249h3.834a.463.463,0,0,0,.317-.1.724.724,0,0,0,.181-.348h.221v2.4h-.221a.757.757,0,0,0-.181-.345.455.455,0,0,0-.317-.1H96.907Z" transform="translate(-68.366 -287.2)" fill="#f7f7f7"/><path d="M133.9,294.335v3.146a.471.471,0,0,0,.1.321.688.688,0,0,0,.344.178v.222H131.39v-.222a.7.7,0,0,0,.346-.181.472.472,0,0,0,.1-.318V289.45a.493.493,0,0,0-.1-.327.721.721,0,0,0-.346-.181v-.222h5.91a9.114,9.114,0,0,1,1.712.126,2.957,2.957,0,0,1,1.1.438,2.222,2.222,0,0,1,.818.979,3.184,3.184,0,0,1,.256,1.277q0,2.318-2.568,2.717l1.834,2.618a5.734,5.734,0,0,0,.71.885.908.908,0,0,0,.55.219v.222H138.3v-.222c.236-.038.352-.12.352-.251a1.786,1.786,0,0,0-.326-.6l-1.913-2.793H133.9Zm0-1.563h3.185a8.391,8.391,0,0,0,1-.041,1.525,1.525,0,0,0,.533-.172,1.267,1.267,0,0,0,0-2.057,1.5,1.5,0,0,0-.53-.178,9.256,9.256,0,0,0-1-.038H133.9Z" transform="translate(-94.586 -288.276)" fill="#f7f7f7"/><path d="M171.213,297.479v-8.028a.472.472,0,0,0-.1-.318.72.72,0,0,0-.346-.181v-.222h2.949v.222a.632.632,0,0,0-.346.178.489.489,0,0,0-.1.324v8.028a.5.5,0,0,0,.1.33.687.687,0,0,0,.344.178v.222H170.77v-.222a.7.7,0,0,0,.346-.181A.5.5,0,0,0,171.213,297.479Z" transform="translate(-122.501 -288.283)" fill="#f7f7f7"/><path d="M195.345,294.542l1.316,1.975-.181.126a.543.543,0,0,0-.317-.181,2.552,2.552,0,0,0-.7.336,9.506,9.506,0,0,1-2,.929,6.846,6.846,0,0,1-1.933.243,6,6,0,0,1-3.668-1.063,4.484,4.484,0,0,1-1.328-1.537,4.837,4.837,0,0,1-.562-2.314,4.687,4.687,0,0,1,1-2.994,5.457,5.457,0,0,1,4.562-1.911,6.863,6.863,0,0,1,1.924.237,9.872,9.872,0,0,1,2.009.929,2.547,2.547,0,0,0,.7.327.535.535,0,0,0,.317-.181l.18.126-1.316,1.981-.186-.126a1.644,1.644,0,0,0,.015-.187.536.536,0,0,0-.172-.377,2.955,2.955,0,0,0-.617-.427,5.193,5.193,0,0,0-2.594-.692,3.861,3.861,0,0,0-2.582.812,3.283,3.283,0,0,0,0,4.966,3.877,3.877,0,0,0,2.582.812,5.158,5.158,0,0,0,2.594-.7,2.913,2.913,0,0,0,.617-.43.524.524,0,0,0,.172-.377,1.071,1.071,0,0,0-.015-.181Z" transform="translate(-133.276 -287.872)" fill="#f7f7f7"/><path d="M231.9,295.794h-4.294l-.635,1.332a1.11,1.11,0,0,0-.131.438c0,.2.154.345.463.424v.222H224.18v-.222a.838.838,0,0,0,.422-.2,1.941,1.941,0,0,0,.332-.54l3.473-7.286a1.393,1.393,0,0,0,.166-.555c0-.213-.134-.365-.4-.459v-.222h3.351v.222c-.271.079-.408.216-.408.409a1.035,1.035,0,0,0,.131.459l3.6,7.306a2.375,2.375,0,0,0,.4.634.89.89,0,0,0,.463.228v.222H232.23v-.222c.306-.053.457-.2.457-.432a1.108,1.108,0,0,0-.14-.429Zm-.594-1.3-1.531-3.377-1.558,3.377Z" transform="translate(-160.361 -288.283)" fill="#f7f7f7"/><path d="M268.872,291.716v5.764a.487.487,0,0,0,.1.327.7.7,0,0,0,.346.181v.222H266.54v-.222a.71.71,0,0,0,.347-.181.482.482,0,0,0,.1-.327v-8.028a.473.473,0,0,0-.1-.318.72.72,0,0,0-.347-.181v-.222h3.211v.222c-.2.053-.3.158-.3.319a.56.56,0,0,0,.2.368l5.211,5.436v-5.623a.472.472,0,0,0-.1-.318.72.72,0,0,0-.346-.181v-.222h2.775v.222a.72.72,0,0,0-.346.181.478.478,0,0,0-.1.318v8.028a.487.487,0,0,0,.1.327.7.7,0,0,0,.346.181v.222h-2.978v-.222c.192-.041.291-.143.291-.3,0-.094-.114-.254-.338-.488Z" transform="translate(-190.388 -288.283)" fill="#f7f7f7"/><path d="M329.768,294.542l1.313,1.975-.181.126a.544.544,0,0,0-.317-.181,2.512,2.512,0,0,0-.7.336,9.444,9.444,0,0,1-2,.929,6.846,6.846,0,0,1-1.933.243,6,6,0,0,1-3.668-1.063,4.452,4.452,0,0,1-1.328-1.537,4.837,4.837,0,0,1-.562-2.314,4.687,4.687,0,0,1,1-2.994,5.461,5.461,0,0,1,4.562-1.911,6.862,6.862,0,0,1,1.924.237,9.876,9.876,0,0,1,2.009.929,2.586,2.586,0,0,0,.7.327.536.536,0,0,0,.317-.181l.18.126-1.313,1.981-.189-.126a1.65,1.65,0,0,0,.015-.187.529.529,0,0,0-.175-.377,2.96,2.96,0,0,0-.617-.427,5.2,5.2,0,0,0-2.6-.692,3.867,3.867,0,0,0-2.582.812,3.283,3.283,0,0,0,0,4.966,3.877,3.877,0,0,0,2.582.812,5.176,5.176,0,0,0,2.6-.7,2.84,2.84,0,0,0,.617-.43.528.528,0,0,0,.175-.377,1.515,1.515,0,0,0-.015-.181Z" transform="translate(-228.56 -287.872)" fill="#f7f7f7"/><path d="M365.74,288.16a5.55,5.55,0,0,1,3.922,1.341,4.944,4.944,0,0,1,.8,6.17,5.11,5.11,0,0,1-4.7,2.3,5.509,5.509,0,0,1-3.9-1.341,4.649,4.649,0,0,1-1.176-1.715,4.944,4.944,0,0,1-.352-1.855,4.892,4.892,0,0,1,.728-2.606A5.125,5.125,0,0,1,365.74,288.16Zm.006,1.61a3.259,3.259,0,0,0-2.25.8,3.446,3.446,0,0,0,0,4.984,3.577,3.577,0,0,0,4.524,0,3.16,3.16,0,0,0,.818-1.171,3.39,3.39,0,0,0,.25-1.277,3.178,3.178,0,0,0-1.066-2.533A3.4,3.4,0,0,0,365.745,289.77Z" transform="translate(-256.872 -287.88)" fill="#f7f7f7"/><path d="M405.217,296.64h5.808a.484.484,0,0,0,.326-.1.725.725,0,0,0,.18-.348h.221v2.451h-.221a.741.741,0,0,0-.18-.348.484.484,0,0,0-.326-.1H402.71v-.222a.7.7,0,0,0,.347-.181.482.482,0,0,0,.1-.327V289.45a.493.493,0,0,0-.1-.327.721.721,0,0,0-.347-.181v-.222h2.949v.222a.633.633,0,0,0-.346.178.5.5,0,0,0-.1.33v7.189Z" transform="translate(-286.913 -288.276)" fill="#f7f7f7"/><path d="M441.305,288.16a5.55,5.55,0,0,1,3.922,1.341,4.944,4.944,0,0,1,.8,6.17,5.11,5.11,0,0,1-4.7,2.3,5.516,5.516,0,0,1-3.9-1.341,4.616,4.616,0,0,1-1.176-1.715,4.948,4.948,0,0,1-.355-1.855,4.866,4.866,0,0,1,.728-2.606A5.141,5.141,0,0,1,441.305,288.16Zm.006,1.61a3.272,3.272,0,0,0-2.253.8,3.44,3.44,0,0,0,0,4.984,3.576,3.576,0,0,0,4.524,0,3.161,3.161,0,0,0,.818-1.171,3.389,3.389,0,0,0,.247-1.277,3.178,3.178,0,0,0-1.066-2.533A3.37,3.37,0,0,0,441.311,289.77Z" transform="translate(-310.433 -287.88)" fill="#f7f7f7"/><path d="M480.625,291.716v5.764a.488.488,0,0,0,.1.327.7.7,0,0,0,.346.181v.222H478.29v-.222a.7.7,0,0,0,.346-.181.481.481,0,0,0,.1-.327v-8.028a.472.472,0,0,0-.1-.318.719.719,0,0,0-.346-.181v-.222H481.5v.222c-.2.053-.3.158-.3.319a.56.56,0,0,0,.2.368l5.211,5.436v-5.623a.472.472,0,0,0-.1-.318.719.719,0,0,0-.346-.181v-.222h2.778v.222a.719.719,0,0,0-.347.181.478.478,0,0,0-.1.318v8.028a.487.487,0,0,0,.1.327.7.7,0,0,0,.347.181v.222h-2.976v-.222c.192-.041.291-.143.291-.3,0-.094-.114-.254-.341-.488Z" transform="translate(-340.488 -288.283)" fill="#f7f7f7"/><path d="M521.183,297.479v-8.028a.474.474,0,0,0-.1-.318.721.721,0,0,0-.347-.181v-.222h2.949v.222a.643.643,0,0,0-.346.178.489.489,0,0,0-.1.324v8.028a.5.5,0,0,0,.1.33.689.689,0,0,0,.344.178v.222H520.74v-.222a.7.7,0,0,0,.347-.181A.5.5,0,0,0,521.183,297.479Z" transform="translate(-370.579 -288.283)" fill="#f7f7f7"/><path d="M541.657,295.794h-4.294l-.638,1.332a1.11,1.11,0,0,0-.131.438c0,.2.154.345.463.424v.222H533.93v-.222a.838.838,0,0,0,.422-.2,1.95,1.95,0,0,0,.332-.54l3.476-7.286a1.392,1.392,0,0,0,.166-.555c0-.213-.134-.365-.4-.459v-.222h3.348v.222c-.271.079-.408.216-.408.409a1.035,1.035,0,0,0,.131.459l3.6,7.306a2.45,2.45,0,0,0,.4.634.89.89,0,0,0,.463.228v.222h-3.474v-.222c.306-.053.457-.2.457-.432a1.108,1.108,0,0,0-.14-.429Zm-.594-1.3-1.531-3.377-1.558,3.377Z" transform="translate(-379.929 -288.283)" fill="#f7f7f7"/><path d="M578.807,296.64h5.808a.488.488,0,0,0,.326-.1.722.722,0,0,0,.18-.348h.221v2.451h-.221a.713.713,0,0,0-.18-.348.478.478,0,0,0-.326-.1H576.3v-.222a.7.7,0,0,0,.346-.181.482.482,0,0,0,.1-.327V289.45a.493.493,0,0,0-.1-.327.721.721,0,0,0-.346-.181v-.222h2.949v.222a.633.633,0,0,0-.347.178.5.5,0,0,0-.1.33Z" transform="translate(-409.963 -288.276)" fill="#f7f7f7"/></g></g><g transform="translate(84.362 8.723)"><path d="M298.036,40.3l-1.022,2.062-2.274.333,1.648,1.6L296,46.566l2.038-1.069,2.035,1.069-.387-2.267,1.648-1.6-2.28-.333Z" transform="translate(-294.74 -40.3)" fill="#fff"/></g><g transform="translate(71.587 10.508)"><path d="M253.425,46.41l-.451,2.255-2.114.911,2.006,1.122.21,2.29,1.689-1.56,2.245.5-.961-2.089,1.179-1.975-2.288.269Z" transform="translate(-250.86 -46.41)" fill="#fff"/></g><g transform="translate(59.906 15.737)"><path d="M212.4,64.31l.143,2.3-1.805,1.429,2.227.561.795,2.159,1.229-1.949,2.3-.093-1.467-1.77.629-2.214-2.14.856Z" transform="translate(-210.74 -64.31)" fill="#fff"/></g><g transform="translate(49.835 23.411)"><path d="M176.793,91.226l.731,2.182-1.374,1.849,2.294-.035,1.325,1.878.684-2.2,2.2-.689-1.872-1.326.035-2.3-1.846,1.385Z" transform="translate(-176.15 -90.58)" fill="#fff"/></g><g transform="translate(41.902 33.233)"><path d="M148.9,125.868l1.272,1.916-.853,2.144,2.207-.631,1.764,1.472.093-2.3,1.942-1.236-2.152-.795-.559-2.235-1.427,1.817Z" transform="translate(-148.9 -124.2)" fill="#fff"/></g><g transform="translate(36.405 44.953)"><path d="M130.02,166.894l1.724,1.522-.271,2.293,1.971-1.183,2.082.964-.5-2.249,1.558-1.7-2.283-.21-1.118-2.013-.908,2.124Z" transform="translate(-130.02 -164.32)" fill="#fff"/></g><path d="M122.94,211.507,125,212.529l.332,2.284,1.6-1.653,2.259.389-1.066-2.042,1.066-2.045-2.259.392-1.6-1.653L125,210.487Z" transform="translate(-88.597 -150.428)" fill="#fff"/><path d="M473.965,211.507l-2.056-1.025-.329-2.282-1.6,1.653-2.259-.392,1.066,2.045-1.069,2.042,2.259-.389,1.6,1.653.332-2.287Z" transform="translate(-332.996 -150.428)" fill="#fff"/><g transform="translate(132.349 44.953)"><path d="M466.119,166.894l-2.251-.453-.908-2.121-1.115,2.013-2.285.21,1.558,1.7-.5,2.249,2.082-.964,1.971,1.183-.271-2.3Z" transform="translate(-459.56 -164.32)" fill="#fff"/></g><g transform="translate(126.986 33.233)"><path d="M447.566,125.868l-2.288.146-1.427-1.814-.559,2.235-2.152.795,1.942,1.236.093,2.3,1.764-1.469,2.207.628-.853-2.147Z" transform="translate(-441.14 -124.2)" fill="#fff"/></g><g transform="translate(118.982 23.411)"><path d="M419.5,91.226l-2.175.736-1.843-1.382.035,2.3-1.872,1.326,2.192.689.687,2.2,1.322-1.878,2.3.035-1.38-1.852Z" transform="translate(-413.65 -90.58)" fill="#fff"/></g><g transform="translate(108.862 15.737)"><path d="M383.776,64.31l-1.913,1.274-2.137-.853.629,2.214-1.464,1.77,2.294.093,1.232,1.949.792-2.156,2.227-.564-1.811-1.431Z" transform="translate(-378.89 -64.31)" fill="#fff"/></g><g transform="translate(97.362 10.508)"><path d="M343.19,46.41l-1.517,1.726-2.283-.272,1.176,1.978-.958,2.089,2.242-.5,1.692,1.56.21-2.29,2-1.122-2.117-.911Z" transform="translate(-339.39 -46.41)" fill="#fff"/></g></svg>