<svg xmlns="http://www.w3.org/2000/svg" viewBox="78 -45 846 846" role="img" aria-label="Universal accessibility symbol">
  <g transform="translate(0 861) scale(.1 -.1)" fill="currentColor" stroke="none">
    <path d="M4810 8550c-358-18-761-100-1095-224-1122-417-1976-1341-2300-2488-45-161-90-387-117-583-18-137-18-723 0-860 71-526 218-978 455-1396 639-1126 1795-1841 3069-1898 418-18 811 26 1198 135 615 173 1160 494 1620 954 664 663 1046 1524 1089 2457 43 913-243 1798-808 2502-413 516-941 907-1542 1144-494 195-1030 283-1569 257zm615-524c173-25 269-44 427-87 201-54 361-115 573-219 342-168 602-355 870-625 498-501 814-1141 910-1845 23-161 31-535 16-701-37-403-137-767-311-1126-265-550-688-1021-1204-1340-409-253-811-394-1326-465-146-20-632-17-790 5-723 100-1357 414-1865 922-417 417-703 917-848 1485-128 499-130 1085-5 1570 149 583 429 1079 843 1496 404 406 904 699 1442 842 213 57 330 78 588 106 92 9 574-3 680-18z"/>
    <path d="M4667 7645c-327-40-714-160-985-307-741-400-1265-1081-1442-1872-51-228-62-317-67-568-6-278 4-402 53-645 106-530 359-1008 744-1407 449-465 1058-765 1709-841 163-19 489-19 652 0 932 109 1734 657 2187 1497 150 278 268 658 307 997 19 163 19 489 0 652-109 936-663 1742-1505 2191-283 151-649 264-989 303-154 18-512 18-664 0zm524-662c122-60 202-151 239-271 64-205-28-430-216-529-300-158-654 58-654 399 0 157 84 301 224 383 77 45 121 55 236 52 96-2 112-5 171-34zm309-1002c210-36 291-59 614-173 275-96 365-128 597-209 147-52 224-199 170-325-41-95-128-154-225-154-23 0-116 23-207 51-90 28-191 59-224 69-33 10-159 48-280 85-369 113-346 108-375 87-23-18-25-26-28-123-6-192 26-589 69-844 61-363 122-594 298-1120 135-402 140-430 97-520-31-66-67-102-130-131-106-49-234-21-311 68-41 48-30 20-194 508-337 1003-354 1050-367 1050-8 0-14-2-14-3 0-2-104-312-231-688-127-376-239-709-248-739-24-75-43-109-83-147-77-74-197-94-293-49-60 28-127 99-143 154-26 85-18 122 107 493 172 510 252 812 306 1155 39 255 68 621 63 803-3 110-4 115-30 134l-26 20-124-38c-283-87-512-158-727-224-91-28-184-51-207-51-97 0-184 59-225 154-39 92-8 204 77 274 20 17 77 45 128 62 50 18 152 54 226 81 619 221 688 243 890 279 189 33 280 39 610 35 268-2 334-6 440-24z"/>
  </g>
</svg>