<svg width="1200" height="675" viewBox="0 0 1200 675" fill="none" xmlns="http://www.w3.org/2000/svg" role="img" aria-labelledby="title desc">
  <title id="title">American Colonial Capital</title>
  <desc id="desc">Navy and red architectural private-equity backdrop for the American Colonial Capital logo.</desc>
  <defs>
    <linearGradient id="bg" x1="68" y1="50" x2="1122" y2="648" gradientUnits="userSpaceOnUse">
      <stop stop-color="#1B2A56"/>
      <stop offset="0.58" stop-color="#2D3960"/>
      <stop offset="1" stop-color="#172549"/>
    </linearGradient>
    <linearGradient id="glass" x1="103" y1="109" x2="1110" y2="608" gradientUnits="userSpaceOnUse">
      <stop stop-color="#90A4CF" stop-opacity="0.22"/>
      <stop offset="1" stop-color="#B9C7E5" stop-opacity="0.01"/>
    </linearGradient>
    <radialGradient id="glow" cx="0" cy="0" r="1" gradientTransform="translate(743 272) rotate(121) scale(425 568)" gradientUnits="userSpaceOnUse">
      <stop stop-color="#8294C1" stop-opacity="0.20"/>
      <stop offset="1" stop-color="#8294C1" stop-opacity="0"/>
    </radialGradient>
    <clipPath id="clip"><rect width="1200" height="675"/></clipPath>
  </defs>
  <g clip-path="url(#clip)">
    <rect width="1200" height="675" fill="url(#bg)"/>
    <rect width="1200" height="675" fill="url(#glow)"/>
    <path d="M-40 690L345 280L505 390L194 675H-40V690Z" fill="#0C1836" fill-opacity="0.38"/>
    <path d="M88 675L398 214L510 318L271 675H88Z" fill="#496091" fill-opacity="0.18"/>
    <path d="M610 675L830 103L1040 176L907 675H610Z" fill="#0D1C3A" fill-opacity="0.36"/>
    <path d="M740 675L939 145L1100 225L1028 675H740Z" fill="#5970A3" fill-opacity="0.14"/>
    <path d="M968 675L1152 246L1250 302V675H968Z" fill="#0A1530" fill-opacity="0.44"/>
    <path d="M0 84L512 226L437 353L0 240V84Z" fill="#8092BE" fill-opacity="0.09"/>
    <path d="M0 333L338 426L286 511L0 429V333Z" fill="#9BABCF" fill-opacity="0.08"/>
    <path d="M241 0L492 0L664 187L552 270L241 0Z" fill="#0B1733" fill-opacity="0.22"/>
    <path d="M318 0L493 0L648 166L563 231L318 0Z" fill="#9EB0D1" fill-opacity="0.07"/>
    <path d="M0 0H1200V675H0V0Z" fill="url(#glass)"/>
    <path d="M32 40V635" stroke="#E52B34" stroke-opacity="0.48" stroke-width="2"/>
    <path d="M1166 40V635" stroke="#E52B34" stroke-opacity="0.48" stroke-width="2"/>
    <path d="M72 590H1125" stroke="#E52B34" stroke-opacity="0.75" stroke-width="3"/>
    <g fill="#E4E9F5" fill-opacity="0.55">
      <path d="M1042 368l5.7 15.1 15.7.4-12.3 9.7 4.3 15.2-13.1-9.1-13 9.1 4.2-15.2-12.3-9.7 15.8-.4 5.7-15.1Z"/>
      <path d="M1098 426l4.5 12 12.6.3-9.9 7.8 3.5 12.1-10.5-7.3-10.4 7.3 3.4-12.1-9.8-7.8 12.5-.3 4.6-12Z"/>
      <path d="M1057 486l3.7 9.8 10.3.3-8.1 6.3 2.8 10-8.6-6-8.6 6 2.8-10-8.1-6.3 10.3-.3 3.7-9.8Z"/>
      <path d="M1115 538l3 8 8.5.2-6.7 5.2 2.3 8.2-7.1-4.9-7.1 4.9 2.3-8.2-6.6-5.2 8.4-.2 3.1-8Z"/>
    </g>
    <text x="80" y="458" fill="#FFFFFF" font-family="Georgia, 'Times New Roman', serif" font-size="50" font-weight="400">The Buy-and-Build</text>
    <text x="80" y="518" fill="#FFFFFF" font-family="Georgia, 'Times New Roman', serif" font-size="50" font-weight="400">Platform Company</text>
    <path d="M82 551H731" stroke="#E52B34" stroke-width="3"/>
  </g>
</svg>
